<?xml version="1.0" encoding="UTF-8"?>
<svg width="865px" height="164px" viewBox="0 0 865 164" version="1.1" xmlns="http://www.w3.org/2000/svg" xmlns:xlink="http://www.w3.org/1999/xlink">
    <title>oceanum_logo_white</title>
    <defs>
        <linearGradient x1="50%" y1="0%" x2="50%" y2="100%" id="linearGradient-1">
            <stop stop-color="#FFFFFF" offset="0%"></stop>
            <stop stop-color="#FFFFFF" offset="100%"></stop>
        </linearGradient>
        <path d="M145.307007,80 C145.307007,63.7212308 130.747303,34.9771987 130,34.3845667 C134.712352,21.6809849 185.219948,11.3145255 199.031836,2.930514 C208.239762,-2.65882702 209.419857,0.231001648 202.572123,11.6 C184.662168,26.7897112 211.991842,32.189938 284.561146,27.8006804 C393.415101,21.2167941 465.545046,55.4860058 608.222523,27.8006804 C676.400569,14.5713227 718.968144,14.5713227 735.746299,15.2515449 C752.524454,15.9317671 769.406922,45.9023223 785.573866,63.7212308 C796.351828,75.6005032 822.441809,59.4439412 863.843807,15.2515449 C858.291917,36.5819227 856.167289,55.6375955 857.469923,72.4185634 C858.772557,89.1995312 860.08815,114.457118 861.416703,148.191325 L397.86265,156 C230.622645,167.861736 122.296564,166.328403 72.8844066,151.4 C134.218773,156 145.307007,96.2787692 145.307007,80 Z" id="path-2"></path>
        <linearGradient x1="50%" y1="0%" x2="50%" y2="100%" id="linearGradient-4">
            <stop stop-color="#FFFFFF" offset="0%"></stop>
            <stop stop-color="#FFFFFF" offset="100%"></stop>
        </linearGradient>
        <path d="M72,140.4 C79.7333333,140.4 86.6,139.6 92.6,138 C98.6,136.4 103.733333,134.666667 108,132.8 C112.933333,130.533333 117.2,127.933333 120.8,125 L99.8,88 C97.8,90 95.4666667,91.7333333 92.8,93.2 C90.5333333,94.5333333 87.7333333,95.7333333 84.4,96.8 C81.0666667,97.8666667 77.2666667,98.4 73,98.4 C68.7333333,98.4 64.8,97.6666667 61.2,96.2 C57.6,94.7333333 54.4666667,92.7333333 51.8,90.2 C49.1333333,87.6666667 47.0333333,84.7 45.5,81.3 C43.9666667,77.9 43.2,74.2666667 43.2,70.4 C43.2,66.5333333 43.9333333,62.9 45.4,59.5 C46.8666667,56.1 48.9,53.1333333 51.5,50.6 C54.1,48.0666667 57.1333333,46.0666667 60.6,44.6 C64.0666667,43.1333333 67.8666667,42.4 72,42.4 C76,42.4 79.5666667,42.9 82.7,43.9 C85.8333333,44.9 88.5333333,45.9333333 90.8,47 C93.3333333,48.4666667 95.6666667,50 97.8,51.6 L118.8,14.6 C115.2,12.0666667 110.933333,9.73333333 106,7.6 C101.733333,5.73333333 96.6333333,4.06666667 90.7,2.6 C84.7666667,1.13333333 78,0.4 70.4,0.4 C60.8,0.4 51.7333333,2.03333333 43.2,5.3 C34.6666667,8.56666667 27.2,13.2666667 20.8,19.4 C14.4,25.5333333 9.33333333,32.9 5.6,41.5 C1.86666667,50.1 0,59.7333333 0,70.4 C0,80.8 1.8,90.3 5.4,98.9 C9,107.5 14,114.866667 20.4,121 C26.8,127.133333 34.4,131.9 43.2,135.3 C52,138.7 61.6,140.4 72,140.4 Z M205.8,137 L205.8,102 L168.4,102 L168.4,86.6 L203.8,86.6 L203.8,53.4 L168.4,53.4 L168.4,38.6 L204.4,38.6 L204.4,3.6 L125.8,3.6 L125.8,137 L205.8,137 Z M248.8,137 L253.2,125 L293.6,125 L298,137 L340,137 L289.4,3.6 L257.4,3.6 L206.8,137 L248.8,137 Z M282.4,95.6 L264.4,95.6 L273.4,72.2 L282.4,95.6 Z M384.8,137 L384.8,85.8 L421.4,137 L456.6,137 L456.6,3.6 L414.8,3.6 L414.8,55 L378,3.6 L343,3.6 L343,137 L384.8,137 Z M525.2,140.4 C533.6,140.4 541.2,139.333333 548,137.2 C554.8,135.066667 560.633333,131.866667 565.5,127.6 C570.366667,123.333333 574.1,117.933333 576.7,111.4 C579.3,104.866667 580.6,97.2 580.6,88.4 L580.6,3.6 L537.8,3.6 L537.8,86.6 C537.8,91.2666667 536.833333,94.8333333 534.9,97.3 C532.966667,99.7666667 529.733333,101 525.2,101 C520.666667,101 517.433333,99.7666667 515.5,97.3 C513.566667,94.8333333 512.6,91.2666667 512.6,86.6 L512.6,3.6 L470,3.6 L470,88.4 C470,97.2 471.3,104.866667 473.9,111.4 C476.5,117.933333 480.2,123.333333 485,127.6 C489.8,131.866667 495.6,135.066667 502.4,137.2 C509.2,139.333333 516.8,140.4 525.2,140.4 Z M636.6,137 L636.6,89 L664,129 L691.2,89 L691.2,137 L733.8,137 L733.8,3.6 L698.6,3.6 L664,54.8 L629.2,3.6 L594,3.6 L594,137 L636.6,137 Z" id="path-5"></path>
    </defs>
    <g id="Logo" stroke="none" stroke-width="1" fill="none" fill-rule="evenodd">
        <g id="oceanum_logo_white" transform="translate(0.534809, 0.000000)">
            <path d="M69.9651907,11.1284454 C108.348981,11.1284454 139.465191,42.2446553 139.465191,80.6284454 C139.465191,119.012235 108.348981,150.128445 69.9651907,150.128445 C31.5814006,150.128445 0.465190726,119.012235 0.465190726,80.6284454 C0.465190726,42.2446553 31.5814006,11.1284454 69.9651907,11.1284454 Z M74.2006118,58 C71.1429386,58 67.1288424,59.7854751 65.2970165,62.8505231 C63.4651907,65.9155712 61.6864129,67.1666174 58.9067127,66.5410943 C56.1270125,65.9155712 53.3677956,62.8732314 49.1519867,64.3944013 C48.6560092,64.5733625 48.1262947,64.755417 47.5841064,64.9506394 L47.2574667,65.0694336 C43.2692779,66.535949 38.8429874,68.8115529 42.2503695,75.8153861 C30.856311,72.9475016 19.4651907,68.1306147 19.4651907,80.2341909 C19.4651907,92.3377671 27.3848752,90.5573241 32.7260665,89.3413952 C36.2868607,88.5307758 39.4616284,88.1254662 42.2503695,88.1254662 C38.6810043,91.3371824 38.6810043,93.7820748 42.2503695,95.4601433 C47.6044173,97.977246 53.1638177,96.1130921 58.9067127,93.8424825 C63.3085873,95.2047464 66.5699994,95.4601433 67.014729,95.4601433 C67.4594586,95.4601433 65.4643799,99.2170712 69.8354912,99.2170712 C70.1194157,101.033686 70.7583033,103.355383 74.2006118,102.441297 C77.6429203,101.527211 80.7365047,97.0778041 81.1738684,95.4601433 C83.6119727,95.2874357 91.153163,93.9246209 103.769246,86.6305305 C116.385329,79.3364401 93.5101213,67.3414128 82.9047128,66.5410943 C82.068206,59.1367164 77.2582851,58 74.2006118,58 Z" id="Combined-Shape" fill="url(#linearGradient-1)" fill-rule="nonzero"></path>
            <mask id="mask-3" fill="white">
                <use xlink:href="#path-2"></use>
            </mask>
            <g id="Mask"></g>
            <g id="Oceanum" mask="url(#mask-3)">
                <g transform="translate(130.000000, 11.000000)">
                    <mask id="mask-6" fill="white">
                        <use xlink:href="#path-5"></use>
                    </mask>
                    <use id="oceanum" stroke="none" fill="url(#linearGradient-4)" fill-rule="nonzero" xlink:href="#path-5"></use>
                </g>
            </g>
        </g>
    </g>
</svg>