<?xml version="1.0" encoding="UTF-8"?>
<svg width="100px" height="100px" viewBox="0 0 100 100" version="1.1" xmlns="http://www.w3.org/2000/svg" xmlns:xlink="http://www.w3.org/1999/xlink">
    <title>oceanumlogo</title>
    <g id="Logo" stroke="none" stroke-width="1" fill="none" fill-rule="evenodd">
        <g id="oceanumlogo" fill="#FFFFFF" fill-rule="nonzero">
            <path d="M50,0 C77.6142375,0 100,22.3857625 100,50 C100,77.6142375 77.6142375,100 50,100 C22.3857625,100 0,77.6142375 0,50 C0,22.3857625 22.3857625,0 50,0 Z M53.0470656,33.7205429 C50.8473006,33.7205429 47.9594616,35.0050573 46.6416013,37.2101279 C45.323741,39.4151984 44.0440447,40.3152317 42.0442604,39.8652151 C40.0444761,39.4151984 38.059428,37.2264648 35.0264719,38.3208316 C31.9935159,39.4151984 27.2069633,40.6703543 30.0612797,46.5373674 L29.8051283,46.4724505 L29.8051283,46.4724505 L29.2930518,46.3402463 C28.8665397,46.2289128 28.4407279,46.1149264 28.0167739,46.0002052 L27.508995,45.8623097 C27.4245384,45.8393093 27.3401748,45.8163101 27.2559132,45.7933276 L26.7516429,45.6557549 C26.6678267,45.6329003 26.5841311,45.610093 26.5005655,45.5873484 L26.0008039,45.4517555 C25.7517765,45.3844579 25.5040846,45.3180004 25.2579783,45.2527974 L24.7679538,45.1241869 C18.6709267,43.5405315 13.6690647,42.9135443 13.6690647,49.7163637 C13.6690647,58.4239725 19.3666795,57.1430782 23.2092632,56.2683092 C25.7709856,55.6851298 28.0549911,55.3935401 30.0612797,55.3935401 C27.4933911,57.7041274 27.4933911,59.4630428 30.0612797,60.6702863 C33.9131127,62.4811516 37.9126813,61.1400336 42.0442604,59.5065016 C45.2110766,60.4865475 47.5574163,60.6702863 47.8773657,60.6702863 C48.197315,60.6702863 46.7620066,63.3731121 49.906691,63.3731121 C50.1109532,64.6800296 50.5705846,66.350315 53.0470656,65.6926991 C55.5235465,65.0350831 57.7491467,61.834071 58.0637969,60.6702863 C59.8178287,60.5460362 65.2431455,59.5655939 74.3194641,54.3180469 C83.3957827,49.0704998 66.938799,40.4409837 59.3090087,39.8652151 C58.7072053,34.5383245 55.2468305,33.7205429 53.0470656,33.7205429 Z" id="OceanumLogo"></path>
        </g>
    </g>
</svg>